<svg width="263" height="364" viewBox="0 0 263 364" fill="none" xmlns="http://www.w3.org/2000/svg">
<path d="M476.297 -383.203L471.238 -388.26L-152.192 235.003L-147.133 240.06L476.297 -383.203Z" fill="white"/>
<path d="M476.273 -348.885L471.215 -353.942L-152.215 269.32L-147.157 274.377L476.273 -348.885Z" fill="white"/>
<path d="M476.258 -314.574L471.199 -319.631L-152.231 303.632L-147.172 308.689L476.258 -314.574Z" fill="white"/>
<path d="M476.281 -280.209L471.223 -285.266L-152.207 337.997L-147.149 343.054L476.281 -280.209Z" fill="white"/>
<path d="M476.281 -245.866L471.223 -250.923L-152.207 372.34L-147.149 377.397L476.281 -245.866Z" fill="white"/>
<path d="M476.295 -211.5L471.236 -216.557L-152.194 406.706L-147.135 411.763L476.295 -211.5Z" fill="white"/>
<path d="M476.295 -177.159L471.236 -182.216L-152.194 441.047L-147.135 446.104L476.295 -177.159Z" fill="white"/>
<path d="M476.295 -142.816L471.236 -147.873L-152.194 475.39L-147.135 480.447L476.295 -142.816Z" fill="white"/>
<path d="M476.293 -108.474L471.234 -113.531L-152.196 509.731L-147.137 514.789L476.293 -108.474Z" fill="white"/>
<path d="M476.293 -74.1314L471.234 -79.1885L-152.196 544.074L-147.137 549.131L476.293 -74.1314Z" fill="white"/>
<path d="M476.293 -39.7984L471.234 -44.8555L-152.196 578.407L-147.137 583.464L476.293 -39.7984Z" fill="white"/>
<path d="M476.26 -5.49565L471.201 -10.5527L-152.229 612.71L-147.17 617.767L476.26 -5.49565Z" fill="white"/>
<path d="M476.26 28.8471L471.201 23.79L-152.229 647.053L-147.17 652.11L476.26 28.8471Z" fill="white"/>
<path d="M476.291 63.229L471.232 58.1719L-152.198 681.435L-147.139 686.492L476.291 63.229Z" fill="white"/>
<path d="M476.291 97.5698L471.232 92.5127L-152.198 715.775L-147.139 720.833L476.291 97.5698Z" fill="white"/>
<path d="M476.291 131.913L471.232 126.855L-152.198 750.118L-147.139 755.175L476.291 131.913Z" fill="white"/>
<path d="M476.289 166.255L471.23 161.198L-152.199 784.461L-147.141 789.518L476.289 166.255Z" fill="white"/>
</svg>
