<svg width="1234" height="1052" viewBox="0 0 1234 1052" fill="none" xmlns="http://www.w3.org/2000/svg">
<circle opacity="0.2" cx="515.916" cy="254.893" r="103.643" transform="rotate(-75 515.916 254.893)" fill="url(#paint0_linear_109_4826)"/>
<circle opacity="0.2" cx="359.536" cy="868.556" r="42.0951" transform="rotate(-75 359.536 868.556)" fill="url(#paint1_linear_109_4826)"/>
<g filter="url(#filter0_f_109_4826)">
<rect x="68" y="560.154" width="984.308" height="489.39" transform="rotate(-30 68 560.154)" fill="url(#paint2_radial_109_4826)" fill-opacity="0.3"/>
</g>
<g opacity="0.28">
<mask id="mask0_109_4826" style="mask-type:luminance" maskUnits="userSpaceOnUse" x="331" y="457" width="364" height="364">
<path d="M641.584 767.5C712.572 696.531 712.572 581.469 641.584 510.5C570.596 439.531 455.503 439.531 384.515 510.5C313.527 581.469 313.527 696.531 384.515 767.5C455.503 838.469 570.596 838.469 641.584 767.5Z" fill="white"/>
</mask>
<g mask="url(#mask0_109_4826)">
<path d="M807.279 73.7974L802.22 68.7404L178.791 692.003L183.849 697.06L807.279 73.7974Z" fill="white"/>
<path d="M807.255 108.115L802.197 103.058L178.767 726.321L183.825 731.378L807.255 108.115Z" fill="white"/>
<path d="M807.239 142.426L802.181 137.369L178.751 760.632L183.809 765.689L807.239 142.426Z" fill="white"/>
<path d="M807.263 176.792L802.204 171.735L178.774 794.998L183.833 800.055L807.263 176.792Z" fill="white"/>
<path d="M807.263 211.134L802.204 206.077L178.774 829.34L183.833 834.397L807.263 211.134Z" fill="white"/>
<path d="M807.276 245.5L802.218 240.443L178.788 863.706L183.846 868.763L807.276 245.5Z" fill="white"/>
<path d="M807.276 279.841L802.218 274.784L178.788 898.047L183.846 903.104L807.276 279.841Z" fill="white"/>
<path d="M807.276 314.184L802.218 309.127L178.788 932.389L183.846 937.447L807.276 314.184Z" fill="white"/>
<path d="M807.274 348.526L802.216 343.469L178.786 966.732L183.844 971.789L807.274 348.526Z" fill="white"/>
<path d="M807.274 382.869L802.216 377.812L178.786 1001.07L183.844 1006.13L807.274 382.869Z" fill="white"/>
<path d="M807.274 417.202L802.216 412.145L178.786 1035.41L183.844 1040.46L807.274 417.202Z" fill="white"/>
<path d="M807.241 451.504L802.183 446.447L178.753 1069.71L183.811 1074.77L807.241 451.504Z" fill="white"/>
<path d="M807.241 485.847L802.183 480.79L178.753 1104.05L183.811 1109.11L807.241 485.847Z" fill="white"/>
<path d="M807.272 520.229L802.213 515.172L178.783 1138.43L183.842 1143.49L807.272 520.229Z" fill="white"/>
<path d="M807.272 554.57L802.213 549.513L178.783 1172.78L183.842 1177.83L807.272 554.57Z" fill="white"/>
<path d="M807.272 588.913L802.213 583.855L178.783 1207.12L183.842 1212.18L807.272 588.913Z" fill="white"/>
<path d="M807.269 623.255L802.211 618.198L178.781 1241.46L183.839 1246.52L807.269 623.255Z" fill="white"/>
</g>
</g>
<defs>
<filter id="filter0_f_109_4826" x="0" y="0" width="1233.13" height="1051.98" filterUnits="userSpaceOnUse" color-interpolation-filters="sRGB">
<feFlood flood-opacity="0" result="BackgroundImageFix"/>
<feBlend mode="normal" in="SourceGraphic" in2="BackgroundImageFix" result="shape"/>
<feGaussianBlur stdDeviation="34" result="effect1_foregroundBlur_109_4826"/>
</filter>
<linearGradient id="paint0_linear_109_4826" x1="515.916" y1="151.25" x2="515.916" y2="358.536" gradientUnits="userSpaceOnUse">
<stop stop-color="#4CAF50"/>
<stop offset="0.463542" stop-color="#A5D6A7"/>
<stop offset="1" stop-color="#81C784"/>
</linearGradient>
<linearGradient id="paint1_linear_109_4826" x1="359.536" y1="826.461" x2="359.536" y2="910.651" gradientUnits="userSpaceOnUse">
<stop stop-color="#4CAF50"/>
<stop offset="0.463542" stop-color="#A5D6A7"/>
<stop offset="1" stop-color="#81C784"/>
</linearGradient>
<radialGradient id="paint2_radial_109_4826" cx="0" cy="0" r="1" gradientUnits="userSpaceOnUse" gradientTransform="translate(560.154 804.849) rotate(26.4362) scale(549.628 438.215)">
<stop offset="0.265625" stop-color="#4CAF50" stop-opacity="0.65"/>
<stop offset="0.604167" stop-color="#A5D6A7" stop-opacity="0.72"/>
<stop offset="1" stop-color="#A5D6A7" stop-opacity="0.78"/>
</radialGradient>
</defs>
</svg>
