<svg width="76" height="76" viewBox="0 0 76 76" fill="none" xmlns="http://www.w3.org/2000/svg">
<g clip-path="url(#clip0_107_642)">
<path d="M37.9485 75.9007C58.9077 75.9007 75.8985 58.9099 75.8985 37.9507C75.8985 16.9915 58.9077 0.000679016 37.9485 0.000679016C16.9893 0.000679016 -0.00146484 16.9915 -0.00146484 37.9507C-0.00146484 58.9099 16.9893 75.9007 37.9485 75.9007Z" fill="white"/>
<path d="M59.0195 30.6492L54.0195 33.3992L49.0195 38.1492V54.4492H56.0195C57.6765 54.4492 59.0195 53.1062 59.0195 51.4492V30.6492Z" fill="#4CAF50"/>
<path d="M17.0195 30.6492L20.6335 32.3592L27.0195 38.1492V54.4492H20.0195C18.3625 54.4492 17.0195 53.1062 17.0195 51.4492V30.6492Z" fill="#1E88E5"/>
<path d="M49.0195 25.6492L38.0195 33.8992L27.0195 25.6492L26.0195 31.4492L27.0195 38.1492L38.0195 46.3992L49.0195 38.1492L50.0195 31.4492L49.0195 25.6492Z" fill="#E53935"/>
<path d="M17.0195 26.7472V30.6492L27.0195 38.1492V25.6492L23.8955 23.3082C23.1515 22.7502 22.2475 22.4492 21.3175 22.4492C18.9435 22.4492 17.0195 24.3732 17.0195 26.7472Z" fill="#C62828"/>
<path d="M59.0195 26.7472V30.6492L49.0195 38.1492V25.6492L52.1435 23.3082C52.8875 22.7502 53.7915 22.4492 54.7215 22.4492C57.0955 22.4492 59.0195 24.3732 59.0195 26.7472Z" fill="#FBC02D"/>
</g>
<defs>
<clipPath id="clip0_107_642">
<rect width="75.9" height="75.9" fill="white"/>
</clipPath>
</defs>
</svg>
