<svg width="77" height="77" viewBox="0 0 77 77" fill="none" xmlns="http://www.w3.org/2000/svg">
<circle cx="38.9051" cy="38.5008" r="37.95" fill="#7360F2"/>
<g clip-path="url(#clip0_105_623)">
<path d="M56.0561 22.3984C54.9314 21.3642 50.3895 18.0764 40.2709 18.0324C40.2709 18.0324 28.3381 17.3145 22.5214 22.6344C19.284 25.863 18.1449 30.5875 18.0262 36.4452C17.9075 42.3029 17.7505 53.2808 28.3636 56.2566H28.3738L28.367 60.7993C28.367 60.7993 28.2991 62.6377 29.5137 63.0123C30.9827 63.4673 31.8453 62.0703 33.2456 60.56C34.0157 59.733 35.0785 58.5178 35.8749 57.5893C43.1335 58.199 48.7161 56.8063 49.3505 56.6008C50.8161 56.1272 59.1086 55.0677 60.4614 44.0914C61.8532 32.7768 59.788 25.6211 56.051 22.395L56.0561 22.3984Z" fill="white"/>
<path d="M53.6946 24.6849C52.7438 23.824 48.6421 21.2541 40.0833 21.2178C40.0833 21.2178 29.9477 20.554 25.0275 24.9969C22.2888 27.6928 21.3669 31.7011 21.266 36.593C21.165 41.485 20.6383 50.8292 29.6136 53.3196C29.6136 53.3196 29.5779 60.2538 29.5737 60.8668C29.5737 61.2897 29.6415 61.5848 29.8858 61.6448C30.0622 61.6879 30.3252 61.5975 30.5491 61.3742C31.9842 59.9366 36.5787 54.4113 36.5787 54.4113C42.7431 54.813 47.6472 53.5995 48.1747 53.4278C49.4181 53.0287 56.1474 52.4528 57.2831 43.2853C58.4595 33.8354 56.8506 27.3875 53.6929 24.6891L53.6946 24.6849Z" fill="#7360F2"/>
<path d="M44.4342 36.7593C44.2875 36.7593 44.1464 36.703 44.0401 36.6021C43.9338 36.5012 43.8706 36.3634 43.8634 36.2173C43.7667 34.2791 42.8524 33.3303 40.9847 33.2339C40.8346 33.2239 40.6945 33.1554 40.5946 33.0432C40.4947 32.931 40.4432 32.7841 40.4511 32.6343C40.459 32.4845 40.5258 32.3439 40.6369 32.2428C40.748 32.1416 40.8946 32.0882 41.045 32.094C43.5106 32.2225 44.8803 33.6288 45.0059 36.1606C45.0135 36.3118 44.9606 36.4598 44.8588 36.572C44.757 36.6843 44.6146 36.7517 44.463 36.7593H44.4342Z" fill="white"/>
<path d="M47.3725 37.7422H47.3598C47.2081 37.7389 47.0639 37.6756 46.959 37.5664C46.854 37.4571 46.7968 37.3108 46.8 37.1596C46.8424 35.2095 46.2843 33.6299 45.0927 32.3319C43.901 31.0338 42.2717 30.3302 40.1072 30.1721C39.9581 30.158 39.8205 30.0861 39.7239 29.972C39.6273 29.8578 39.5794 29.7105 39.5905 29.5616C39.6016 29.4127 39.6708 29.274 39.7832 29.1754C39.8957 29.0767 40.0424 29.0259 40.192 29.0339C42.6271 29.2115 44.5609 30.0622 45.9383 31.5615C47.3157 33.0608 47.9951 34.9575 47.9467 37.1841C47.9432 37.3335 47.8811 37.4756 47.7738 37.5799C47.6665 37.6842 47.5224 37.7425 47.3725 37.7422V37.7422Z" fill="white"/>
<path d="M50.375 38.9141C50.224 38.9141 50.0792 38.8547 49.972 38.7487C49.8647 38.6428 49.8038 38.4989 49.8025 38.3484C49.7762 34.9058 48.7406 32.166 46.7228 30.2058C44.705 28.2456 42.1487 27.2351 39.1326 27.214C38.9847 27.2074 38.8451 27.1439 38.7431 27.0369C38.6411 26.9298 38.5847 26.7876 38.5856 26.6399C38.5866 26.4923 38.645 26.3508 38.7484 26.2451C38.8518 26.1394 38.9923 26.0778 39.1403 26.0732C42.4625 26.0961 45.2818 27.2114 47.5218 29.3889C49.7618 31.5664 50.9144 34.5811 50.9475 38.3391C50.9481 38.414 50.9338 38.4884 50.9056 38.5578C50.8773 38.6273 50.8356 38.6905 50.7828 38.7439C50.7301 38.7973 50.6673 38.8399 50.598 38.8691C50.5288 38.8982 50.4544 38.9136 50.3792 38.9141H50.375Z" fill="white"/>
</g>
<defs>
<clipPath id="clip0_105_623">
<rect width="42.9" height="45.1" fill="white" transform="translate(18 18)"/>
</clipPath>
</defs>
</svg>
