<svg width="77" height="77" viewBox="0 0 77 77" fill="none" xmlns="http://www.w3.org/2000/svg">
<circle cx="38.9305" cy="38.5008" r="37.95" fill="#D9D9D9"/>
<g clip-path="url(#clip0_107_665)">
<path d="M58.7366 27.5554H17.5263C16.5471 27.5554 15.7534 28.3475 15.7534 29.3246V59.1808C15.7534 60.1579 16.5471 60.95 17.5263 60.95H58.7366C59.7158 60.95 60.5096 60.1579 60.5096 59.1808V29.3246C60.5096 28.3475 59.7158 27.5554 58.7366 27.5554Z" fill="#4989F5"/>
<path d="M58.2228 27.3071H17.9943C16.7481 27.3071 15.7789 36.9299 15.7789 38.1734L37.8073 60.9502H58.2228C58.8233 60.9487 59.3987 60.7099 59.8233 60.2862C60.2479 59.8626 60.4871 59.2884 60.4887 58.6892V29.5654C60.4864 28.9667 60.2469 28.3932 59.8223 27.9701C59.3978 27.547 58.8228 27.3086 58.2228 27.3071Z" fill="url(#paint0_linear_107_665)"/>
<path d="M25.9738 33.1482H38.7599V16.4008H27.8889L25.9738 33.1482Z" fill="#3C4BA6"/>
<path d="M51.5476 33.1482H38.7588V16.4008H49.6331L51.5476 33.1482ZM60.5095 19.5753L60.5254 19.6329C60.5215 19.6124 60.5141 19.5938 60.5095 19.5753V19.5753Z" fill="#7BABF7"/>
<path d="M60.5261 19.6322L60.5102 19.5751C60.3134 18.676 59.8146 17.8709 59.0965 17.2935C58.3784 16.716 57.484 16.4007 56.5617 16.4H49.6339L51.547 33.148H64.3345L60.5261 19.6322Z" fill="#3F51B5"/>
<path d="M17.0117 19.5755L16.9958 19.6332C16.9998 19.6126 17.0077 19.5941 17.0117 19.5755Z" fill="#7BABF7"/>
<path d="M16.9965 19.6322L17.0124 19.5751C17.2091 18.6759 17.7079 17.8708 18.426 17.2933C19.1442 16.7158 20.0386 16.4006 20.9609 16.4H27.8894L25.973 33.148H13.1855L16.9965 19.6322Z" fill="#7BABF7"/>
<path fill-rule="evenodd" clip-rule="evenodd" d="M25.9944 33.1438C25.9944 33.9812 25.8291 34.8104 25.508 35.584C25.1868 36.3576 24.7161 37.0606 24.1227 37.6527C23.5293 38.2447 22.8248 38.7144 22.0495 39.0348C21.2741 39.3552 20.4432 39.52 19.604 39.52C18.7649 39.52 17.9339 39.3552 17.1586 39.0348C16.3834 38.7144 15.6789 38.2447 15.0856 37.6526C14.4922 37.0605 14.0215 36.3576 13.7004 35.584C13.3794 34.8103 13.2141 33.9812 13.2142 33.1438H25.9944Z" fill="#709BE0"/>
<path fill-rule="evenodd" clip-rule="evenodd" d="M38.7758 33.1438C38.7758 33.9814 38.6104 34.8108 38.2891 35.5846C37.9677 36.3584 37.4968 37.0615 36.9031 37.6536C36.3094 38.2457 35.6046 38.7153 34.829 39.0355C34.0533 39.3558 33.2221 39.5204 32.3827 39.52C31.5436 39.52 30.7127 39.355 29.9374 39.0346C29.1622 38.7142 28.4578 38.2445 27.8644 37.6524C27.2711 37.0604 26.8004 36.3575 26.4793 35.5839C26.1582 34.8103 25.9929 33.9812 25.9929 33.1438H38.7758Z" fill="#3C4BA6"/>
<path fill-rule="evenodd" clip-rule="evenodd" d="M51.5581 33.1438C51.5581 33.9812 51.3928 34.8104 51.0717 35.584C50.7505 36.3576 50.2798 37.0606 49.6864 37.6527C49.093 38.2447 48.3885 38.7144 47.6132 39.0348C46.8379 39.3552 46.0069 39.52 45.1677 39.52C44.3286 39.52 43.4977 39.355 42.7225 39.0346C41.9472 38.7142 41.2428 38.2445 40.6495 37.6524C40.0561 37.0604 39.5855 36.3575 39.2643 35.5839C38.9432 34.8103 38.778 33.9812 38.778 33.1438H51.5581Z" fill="#709BE0"/>
<path fill-rule="evenodd" clip-rule="evenodd" d="M64.3368 33.1438C64.3368 33.9812 64.1715 34.8104 63.8503 35.584C63.5292 36.3576 63.0584 37.0606 62.465 37.6527C61.8716 38.2447 61.1671 38.7144 60.3918 39.0348C59.6165 39.3552 58.7855 39.52 57.9463 39.52C57.1072 39.52 56.2763 39.355 55.5011 39.0346C54.7258 38.7142 54.0214 38.2445 53.4281 37.6524C52.8348 37.0604 52.3641 36.3575 52.043 35.5839C51.7219 34.8103 51.5566 33.9812 51.5566 33.1438H64.3368Z" fill="#3C4BA6"/>
<path d="M57.9463 50.4195C57.9237 50.1159 57.8858 49.8388 57.8327 49.4842H50.8624C50.8624 50.4573 50.8624 51.5192 50.8584 52.4923H54.8966C54.8107 52.9459 54.6359 53.3781 54.3821 53.7641C54.1283 54.1501 53.8007 54.4822 53.4179 54.7414C53.4179 54.7414 53.4179 54.7248 53.4179 54.7242C52.9237 55.0481 52.3671 55.2652 51.7837 55.3612C51.1986 55.4679 50.5988 55.4652 50.0147 55.3532C49.4217 55.2308 48.8603 54.988 48.3653 54.64C47.6347 54.1229 47.0712 53.4044 46.7438 52.5725C46.7192 52.5062 46.6959 52.4399 46.672 52.3736V52.3664L46.6787 52.3617C46.3615 51.4309 46.3615 50.4216 46.6787 49.4908C46.9013 48.8377 47.2679 48.2426 47.7515 47.7495C48.3076 47.1753 49.0114 46.7651 49.7857 46.5639C50.5601 46.3627 51.375 46.3782 52.1411 46.6087C52.7389 46.7926 53.285 47.1141 53.7354 47.5473L55.0978 46.1878C55.3383 45.9452 55.5881 45.7112 55.8193 45.4586C55.1283 44.8156 54.3173 44.3145 53.4325 43.9837C51.8212 43.4024 50.0592 43.3886 48.439 43.9446C48.3826 43.9638 48.3268 43.9837 48.271 44.0049C46.5232 44.6605 45.0854 45.9463 44.2414 47.6083C43.9434 48.1967 43.7264 48.8226 43.5964 49.469C43.2244 51.3127 43.5701 53.2286 44.5632 54.8271C45.5563 56.4256 47.1222 57.5867 48.9426 58.0743C50.1775 58.4057 51.4901 58.3965 52.735 58.1147C53.8658 57.8592 54.9113 57.3164 55.7701 56.5391C56.6662 55.7165 57.3086 54.6201 57.6454 53.4561C57.9266 52.4695 58.0285 51.4406 57.9463 50.4182V50.4195Z" fill="white"/>
</g>
<defs>
<linearGradient id="paint0_linear_107_665" x1="15.7932" y1="44.182" x2="60.7902" y2="44.182" gradientUnits="userSpaceOnUse">
<stop offset="0.03" stop-color="#4079D8"/>
<stop offset="1" stop-color="#4989F5"/>
</linearGradient>
<clipPath id="clip0_107_665">
<rect width="51.15" height="44.55" fill="white" transform="translate(13.1836 16.4004)"/>
</clipPath>
</defs>
</svg>
