<svg width="77" height="77" viewBox="0 0 77 77" fill="none" xmlns="http://www.w3.org/2000/svg">
<g id="Group 1000000810">
<path id="Vector" d="M38.9265 76.4508C59.8857 76.4508 76.8766 59.46 76.8766 38.5008C76.8766 17.5416 59.8857 0.550781 38.9265 0.550781C17.9674 0.550781 0.976562 17.5416 0.976562 38.5008C0.976562 59.46 17.9674 76.4508 38.9265 76.4508Z" fill="#1D99EE"/>
<path id="Vector_2" d="M31.6973 57.7567C49.8473 57.7567 59.7473 42.7362 59.7473 29.7067C59.7473 29.2777 59.7473 28.8542 59.7473 28.4307C61.6759 27.0343 63.3408 25.3061 64.6643 23.3268C62.8665 24.1254 60.9586 24.6482 59.0048 24.8777C61.0619 23.6457 62.6019 21.7089 63.3388 19.4272C61.4026 20.5725 59.2863 21.3815 57.0798 21.8198C56.1574 20.8345 55.0424 20.0492 53.804 19.5127C52.5655 18.9763 51.23 18.7 49.8803 18.7012C48.5855 18.7012 47.3035 18.9564 46.1073 19.4521C44.9112 19.9477 43.8244 20.6741 42.9091 21.5899C41.9938 22.5057 41.2679 23.5929 40.773 24.7893C40.278 25.9857 40.0236 27.2679 40.0243 28.5627C40.0214 29.318 40.1063 30.0711 40.2773 30.8067C36.3584 30.6103 32.5245 29.5921 29.0244 27.8184C25.5243 26.0447 22.4361 23.5549 19.9603 20.5107C19.0835 22.0129 18.6222 23.7214 18.6238 25.4608C18.6227 27.0855 19.0239 28.6853 19.7917 30.1172C20.5595 31.5491 21.6699 32.7685 23.0238 33.6667C21.4577 33.6214 19.9256 33.1988 18.5578 32.4347C18.5551 32.4768 18.5551 32.5191 18.5578 32.5612C18.5585 34.8372 19.3464 37.043 20.7879 38.8043C22.2294 40.5656 24.2359 41.7741 26.4668 42.2248C25.6208 42.4552 24.7477 42.5718 23.8708 42.5713C23.2488 42.5718 22.6281 42.5128 22.0173 42.3952C22.6509 44.3514 23.8777 46.0617 25.5276 47.2888C27.1776 48.5159 29.1686 49.1989 31.2243 49.2428C27.7329 51.9841 23.4203 53.47 18.9813 53.4612C18.1964 53.4627 17.4122 53.4167 16.6328 53.3237C21.1388 56.221 26.3843 57.7582 31.7413 57.7512" fill="white"/>
</g>
</svg>
