<svg width="76" height="77" viewBox="0 0 76 77" fill="none" xmlns="http://www.w3.org/2000/svg">
<g id="Group 1000000811">
<g id="Group 1000000779">
<path id="Vector" d="M37.9773 76.4508C58.9366 76.4508 75.9273 59.46 75.9273 38.5008C75.9273 17.5416 58.9366 0.550781 37.9773 0.550781C17.0181 0.550781 0.0273438 17.5416 0.0273438 38.5008C0.0273438 59.46 17.0181 76.4508 37.9773 76.4508Z" fill="#2967B0"/>
<path id="Vector_2" d="M40.9122 33.3218C41.5363 32.6191 42.0367 31.9107 42.6888 31.3035C43.6154 30.4002 44.7125 29.6904 45.9162 29.2155C47.1199 28.7406 48.4061 28.51 49.6998 28.5373C51.1898 28.5209 52.6749 28.7101 54.1132 29.0995C57.4078 30.0497 59.3194 32.3155 60.2358 35.537C60.8438 37.9469 61.1181 40.4289 61.051 42.9134C61.051 48.1533 61.051 53.3932 61.051 58.6556C61.051 59.1447 60.9161 59.274 60.4326 59.2684C57.7264 59.2459 55.0259 59.2459 52.331 59.2684C51.8531 59.2684 51.7687 59.1278 51.7687 58.678C51.7687 53.693 51.7687 48.7042 51.7687 43.7117C51.7971 42.4604 51.6495 41.2113 51.3302 40.001C50.6836 37.7522 49.0813 36.6278 46.7368 36.7458C43.5378 36.9145 41.868 38.4999 41.4632 41.7552C41.364 42.5308 41.3151 43.3121 41.317 44.094C41.317 48.946 41.317 53.798 41.317 58.65C41.317 59.1335 41.1933 59.274 40.6986 59.2684C37.9831 59.2684 35.2619 59.2684 32.5407 59.2684C32.1022 59.2684 31.9785 59.156 31.9785 58.7062C31.9785 49.1034 31.9785 39.4988 31.9785 29.8923C31.9785 29.42 32.1303 29.3301 32.5801 29.3301C35.1663 29.3301 37.7469 29.3301 40.3331 29.3301C40.8054 29.3301 40.9291 29.4819 40.8954 29.9317C40.8954 31.0224 40.9122 32.1749 40.9122 33.3218Z" fill="#FDFDFD"/>
<path id="Vector_3" d="M26.1139 44.297C26.1139 49.0478 26.1139 53.7986 26.1139 58.555C26.1139 59.0835 25.9846 59.241 25.4392 59.2353C22.7349 59.2353 20.0363 59.2353 17.3376 59.2353C16.9047 59.2353 16.7754 59.1285 16.7754 58.6731C16.7754 49.0516 16.7754 39.4301 16.7754 29.8086C16.7754 29.415 16.8766 29.2464 17.2983 29.2745C20.0363 29.2745 22.7743 29.2745 25.5123 29.2745C26.0408 29.2745 26.1083 29.4769 26.1083 29.9267C26.1045 34.7168 26.1064 39.5069 26.1139 44.297Z" fill="#FDFDFD"/>
<path id="Vector_4" d="M26.8576 19.7444C26.8591 20.4539 26.7208 21.1569 26.4507 21.8129C26.1805 22.469 25.7837 23.0655 25.2831 23.5682C24.7824 24.071 24.1876 24.4702 23.5327 24.7431C22.8777 25.0159 22.1754 25.1571 21.4659 25.1586C20.0425 25.1498 18.6796 24.5821 17.671 23.5777C16.6624 22.5733 16.0889 21.2128 16.0742 19.7894C16.0757 18.3564 16.6452 16.9825 17.658 15.9686C18.6708 14.9548 20.0442 14.3838 21.4772 14.3809C22.8994 14.3867 24.262 14.9532 25.2693 15.9573C26.2766 16.9614 26.8473 18.3222 26.8576 19.7444Z" fill="#FDFDFD"/>
</g>
</g>
</svg>
