<svg width="76" height="76" viewBox="0 0 76 76" fill="none" xmlns="http://www.w3.org/2000/svg">
<g clip-path="url(#clip0_107_666)">
<path d="M37.9484 75.9007C58.9076 75.9007 75.8984 58.9099 75.8984 37.9507C75.8984 16.9915 58.9076 0.000671387 37.9484 0.000671387C16.9892 0.000671387 -0.00158691 16.9915 -0.00158691 37.9507C-0.00158691 58.9099 16.9892 75.9007 37.9484 75.9007Z" fill="#6DC05B"/>
<path d="M63.6842 34.2955C63.6842 22.725 52.0855 13.3078 37.822 13.3078C23.5584 13.3078 11.9597 22.725 11.9597 34.2955C11.9597 44.6742 21.1633 53.3605 33.5884 55.0022C34.4318 55.1877 35.5786 55.5644 35.871 56.2784C36.0702 57.0425 36.099 57.8409 35.9554 58.6173C35.9554 58.6173 35.6517 60.4445 35.5843 60.8324C35.4718 61.4846 35.067 63.3906 37.8332 62.2268C40.5993 61.063 52.7321 53.4561 58.1575 47.2098C61.9075 43.1 63.701 38.9283 63.701 34.2787" fill="white"/>
<path d="M32.5922 28.707H30.7762C30.643 28.707 30.5151 28.7595 30.4203 28.8532C30.3256 28.9469 30.2717 29.0742 30.2702 29.2074V40.4518C30.2702 40.5183 30.2832 40.5841 30.3087 40.6455C30.3341 40.7069 30.3714 40.7626 30.4183 40.8096C30.4653 40.8566 30.5211 40.8939 30.5825 40.9193C30.6439 40.9447 30.7097 40.9578 30.7762 40.9578H32.5922C32.6583 40.9578 32.7239 40.9447 32.7849 40.9192C32.846 40.8937 32.9015 40.8564 32.948 40.8093C32.9945 40.7622 33.0313 40.7064 33.0561 40.6451C33.0809 40.5837 33.0933 40.518 33.0925 40.4518V29.2074C33.0925 29.0747 33.0398 28.9474 32.9459 28.8536C32.8521 28.7597 32.7249 28.707 32.5922 28.707" fill="#6DC05B"/>
<path d="M45.059 28.707H43.2429C43.1097 28.707 42.9819 28.7595 42.8872 28.8532C42.7924 28.9469 42.7385 29.0742 42.737 29.2074V35.9035L37.5758 28.9263L37.5364 28.8757V28.842H37.5083H35.5574C35.4912 28.8412 35.4256 28.8536 35.3642 28.8784C35.3029 28.9032 35.247 28.94 35.1999 28.9865C35.1528 29.033 35.1155 29.0885 35.09 29.1495C35.0645 29.2106 35.0514 29.2761 35.0514 29.3423V40.5868C35.0514 40.721 35.1047 40.8497 35.1996 40.9446C35.2945 41.0395 35.4232 41.0928 35.5574 41.0928H37.3677C37.5019 41.0928 37.6306 41.0395 37.7255 40.9446C37.8204 40.8497 37.8738 40.721 37.8738 40.5868V33.8963L43.0462 40.8791C43.0801 40.9271 43.122 40.9689 43.1699 41.0028V41.0028H43.2036H43.2374C43.2803 41.0087 43.3238 41.0087 43.3667 41.0028H45.1826C45.2488 41.0028 45.3144 40.9897 45.3754 40.9642C45.4365 40.9387 45.4919 40.9013 45.5384 40.8543C45.585 40.8072 45.6217 40.7514 45.6465 40.69C45.6713 40.6287 45.6838 40.563 45.683 40.4968V29.2524C45.683 29.1197 45.6303 28.9924 45.5364 28.8985C45.4426 28.8047 45.3154 28.752 45.1826 28.752" fill="#6DC05B"/>
<path d="M28.1957 38.158H23.265V29.2074C23.265 29.0747 23.2123 28.9474 23.1184 28.8536C23.0246 28.7597 22.8973 28.707 22.7646 28.707H20.9487C20.8154 28.707 20.6876 28.7595 20.5928 28.8532C20.4981 28.9469 20.4441 29.0742 20.4427 29.2074V40.4518C20.4436 40.5816 20.4938 40.7063 20.5832 40.8004V40.8004C20.6774 40.8898 20.802 40.94 20.9318 40.941H28.1788C28.245 40.941 28.3105 40.9279 28.3716 40.9024C28.4327 40.8769 28.4881 40.8395 28.5346 40.7924C28.5812 40.7454 28.6179 40.6895 28.6427 40.6282C28.6675 40.5668 28.68 40.5012 28.6792 40.435V38.6246C28.68 38.5584 28.6675 38.4928 28.6427 38.4314C28.6179 38.3701 28.5812 38.3142 28.5346 38.2671C28.4881 38.2201 28.4327 38.1827 28.3716 38.1572C28.3105 38.1317 28.245 38.1186 28.1788 38.1186" fill="#6DC05B"/>
<path d="M55.0807 31.5294C55.2149 31.5294 55.3436 31.4761 55.4385 31.3812C55.5334 31.2863 55.5867 31.1576 55.5867 31.0234V29.2074C55.5867 29.1412 55.5736 29.0757 55.5481 29.0146C55.5226 28.9536 55.4852 28.8981 55.4382 28.8516C55.3911 28.8051 55.3353 28.7683 55.2739 28.7435C55.2126 28.7187 55.1469 28.7063 55.0807 28.707H47.8337C47.7692 28.7063 47.7052 28.7184 47.6454 28.7425C47.5855 28.7666 47.5311 28.8023 47.4851 28.8476V28.8476C47.3947 28.9411 47.3443 29.0662 47.3445 29.1962V29.1962V40.4406C47.3455 40.5705 47.3957 40.6951 47.4851 40.7892V40.7892C47.5772 40.8782 47.7 40.9285 47.828 40.9298H55.0807C55.2149 40.9298 55.3436 40.8765 55.4385 40.7816C55.5334 40.6867 55.5867 40.558 55.5867 40.4238V38.6134C55.5867 38.4792 55.5334 38.3505 55.4385 38.2556C55.3436 38.1607 55.2149 38.1074 55.0807 38.1074H50.1557V36.2015H55.0807C55.1469 36.2022 55.2126 36.1898 55.2739 36.165C55.3353 36.1402 55.3911 36.1035 55.4382 36.0569C55.4852 36.0104 55.5226 35.955 55.5481 35.8939C55.5736 35.8328 55.5867 35.7673 55.5867 35.7011V33.9582C55.5867 33.824 55.5334 33.6953 55.4385 33.6004C55.3436 33.5055 55.2149 33.4522 55.0807 33.4522H50.1557V31.5519L55.0807 31.5294Z" fill="#6DC05B"/>
</g>
<defs>
<clipPath id="clip0_107_666">
<rect width="75.9" height="75.9" fill="white"/>
</clipPath>
</defs>
</svg>
