<svg width="78" height="77" viewBox="0 0 78 77" fill="none" xmlns="http://www.w3.org/2000/svg">
<g id="Group 1000000809">
<circle id="Ellipse 1916" cx="39.4512" cy="38.5" r="38.5" fill="url(#paint0_linear_2899_10092)"/>
<g id="Group 1000000790">
<path id="Vector" d="M40.2939 19.064C46.5364 19.064 47.2734 19.064 49.7374 19.1959C51.2215 19.2121 52.6917 19.4856 54.0824 20.0043C55.0965 20.3793 56.0137 20.977 56.7664 21.7532C57.5438 22.5048 58.1417 23.4221 58.5154 24.4368C59.0311 25.826 59.3028 27.2939 59.3184 28.7757C59.4339 31.2449 59.4559 31.9818 59.4559 38.2235C59.4559 44.4651 59.4559 45.202 59.3184 47.6657C59.3041 49.1476 59.0324 50.6157 58.5154 52.0046C58.1417 53.0209 57.5439 53.9401 56.7664 54.6938C56.0137 55.47 55.0965 56.0676 54.0824 56.4426C52.6904 56.9559 51.2209 57.2274 49.7374 57.2454C47.2734 57.3609 46.5364 57.3829 40.2939 57.3829C34.0514 57.3829 33.3144 57.3829 30.8504 57.2454C29.3669 57.2274 27.8973 56.9559 26.5054 56.4426C25.4912 56.0676 24.574 55.47 23.8214 54.6938C23.0438 53.9401 22.446 53.0209 22.0724 52.0046C21.5553 50.6157 21.2836 49.1476 21.2693 47.6657C21.1538 45.202 21.1318 44.4651 21.1318 38.2235C21.1318 31.9818 21.1318 31.2449 21.2693 28.7757C21.2849 27.2939 21.5566 25.826 22.0724 24.4368C22.446 23.4221 23.0439 22.5048 23.8214 21.7532C24.574 20.977 25.4912 20.3793 26.5054 20.0043C27.896 19.4856 29.3662 19.2121 30.8504 19.1959C33.3144 19.0859 34.0514 19.064 40.2939 19.064ZM40.2939 14.8516C33.9469 14.8516 33.1439 14.8516 30.6578 14.989C28.7173 15.0327 26.7982 15.4046 24.9818 16.0889C23.4231 16.6779 22.0103 17.5971 20.8404 18.7835C19.6518 19.9516 18.7321 21.3647 18.1453 22.9245C17.4582 24.7398 17.0862 26.6592 17.0453 28.5997C16.9298 31.0909 16.9023 31.8993 16.9023 38.2345C16.9023 44.5696 16.9023 45.3835 17.0453 47.8691C17.0877 49.8096 17.4597 51.7287 18.1453 53.5444C18.7336 55.1018 19.6531 56.5128 20.8404 57.6799C22.0089 58.8694 23.422 59.7906 24.9818 60.38C26.7974 61.067 28.717 61.439 30.6578 61.4798C33.1493 61.5953 33.9579 61.6228 40.2939 61.6228C46.6299 61.6228 47.4439 61.6228 49.9299 61.4798C51.8707 61.439 53.7903 61.067 55.6059 60.38C57.1658 59.7906 58.5789 58.8694 59.7474 57.6799C60.9346 56.5128 61.8542 55.1018 62.4424 53.5444C63.128 51.7287 63.5 49.8096 63.5424 47.8691C63.6579 45.378 63.6854 44.5696 63.6854 38.2345C63.6854 31.8993 63.6854 31.0854 63.5424 28.5997C63.5015 26.6592 63.1295 24.7398 62.4424 22.9245C61.8557 21.3647 60.936 19.9516 59.7474 18.7835C58.5774 17.5971 57.1646 16.6779 55.6059 16.0889C53.7895 15.4046 51.8704 15.0327 49.9299 14.989C47.4384 14.8791 46.6299 14.8516 40.2939 14.8516Z" fill="white"/>
<path id="Vector_2" d="M40.2959 26.2461C38.7195 26.2461 37.1585 26.5566 35.7021 27.16C34.2457 27.7634 32.9225 28.6477 31.808 29.7626C30.6935 30.8774 29.8097 32.2009 29.2069 33.6574C28.6041 35.1138 28.2942 36.6747 28.2949 38.251C28.3022 41.4287 29.5698 44.4737 31.8196 46.7181C34.0695 48.9625 37.1178 50.2229 40.2959 50.2229C43.4788 50.2229 46.5313 48.9587 48.7819 46.7084C51.0325 44.4581 52.2969 41.406 52.2969 38.2235C52.2911 35.0449 51.0241 31.9985 48.7741 29.7529C46.5241 27.5073 43.475 26.2461 40.2959 26.2461ZM40.2959 46.0435C38.2299 46.0435 36.2484 45.2233 34.787 43.7631C33.3256 42.3029 32.5039 40.3222 32.5024 38.2565C32.4981 37.2304 32.6965 36.2135 33.0862 35.2643C33.4759 34.3151 34.0493 33.4522 34.7734 32.7251C35.4975 31.998 36.3581 31.421 37.3058 31.0273C38.2535 30.6337 39.2697 30.431 40.2959 30.431C42.3629 30.431 44.3452 31.252 45.8068 32.7134C47.2683 34.1747 48.0894 36.1568 48.0894 38.2235C48.088 40.2893 47.2662 42.2699 45.8048 43.73C44.3434 45.1902 42.3619 46.0104 40.2959 46.0104V46.0435Z" fill="white"/>
</g>
</g>
<defs>
<linearGradient id="paint0_linear_2899_10092" x1="61.4512" y1="64.35" x2="24.6012" y2="-8.45322e-07" gradientUnits="userSpaceOnUse">
<stop stop-color="#525DD0"/>
<stop offset="0.33502" stop-color="#D02E91"/>
<stop offset="0.563814" stop-color="#EC4B50"/>
<stop offset="0.981228" stop-color="#FED97C"/>
</linearGradient>
</defs>
</svg>
