<svg width="76" height="77" viewBox="0 0 76 77" fill="none" xmlns="http://www.w3.org/2000/svg">
<circle cx="37.95" cy="38.5008" r="37.95" fill="white"/>
<path d="M75.9 38.451C75.9 28.3993 71.9017 18.7592 64.7847 11.6515C57.6677 4.54381 48.015 0.550781 37.95 0.550781C27.885 0.550781 18.2323 4.54381 11.1153 11.6515C3.99829 18.7592 0 28.3993 0 38.451C0.00206583 47.4805 3.23109 56.2128 9.10596 63.0763C14.9808 69.9399 23.1157 74.484 32.0467 75.8908V49.4056H22.3933V38.451H32.0298V30.1017C32.0298 20.6014 37.697 15.3571 46.3665 15.3571C49.2123 15.3965 52.0515 15.6424 54.8616 16.0926V25.4189H50.0771C45.3601 25.4189 43.8927 28.3443 43.8927 31.3426V38.451H54.4175L52.7308 49.4056H43.8814V75.8908C52.8073 74.4779 60.9355 69.9312 66.8047 63.0683C72.6739 56.2053 75.899 47.4764 75.9 38.451Z" fill="#1677F0"/>
</svg>
