<svg width="81" height="81" viewBox="0 0 81 81" fill="none" xmlns="http://www.w3.org/2000/svg">
<g id="Frame" clip-path="url(#clip0_2899_10069)">
<path id="Vector" fill-rule="evenodd" clip-rule="evenodd" d="M29.9792 0.46875C25.5588 0.472011 21.9813 4.05213 21.9846 8.4637C21.9813 12.8753 25.5621 16.4554 29.9825 16.4587H37.9804V8.46696C37.9837 4.05539 34.4029 0.475271 29.9792 0.46875ZM29.9792 21.793H8.65806C4.23765 21.7962 0.656898 25.3764 0.660165 29.7879C0.653631 34.1995 4.23439 37.7796 8.65479 37.7861H29.9792C34.3996 37.7829 37.9804 34.2028 37.9771 29.7912C37.9804 25.3764 34.3996 21.7962 29.9792 21.793Z" fill="#36C5F0"/>
<path id="Vector_2" fill-rule="evenodd" clip-rule="evenodd" d="M80.6256 29.7879C80.6288 25.3764 77.0481 21.7962 72.6277 21.793C68.2073 21.7962 64.6265 25.3764 64.6298 29.7879V37.7861H72.6277C77.0481 37.7829 80.6288 34.2028 80.6256 29.7879ZM59.3011 29.7879V8.4637C59.3044 4.05539 55.7269 0.475271 51.3065 0.46875C46.8861 0.472011 43.3053 4.05213 43.3086 8.4637V29.7879C43.3021 34.1995 46.8828 37.7796 51.3032 37.7861C55.7236 37.7829 59.3044 34.2028 59.3011 29.7879Z" fill="#2EB67D"/>
<path id="Vector_3" fill-rule="evenodd" clip-rule="evenodd" d="M51.3026 80.4359C55.723 80.4326 59.3037 76.8525 59.3005 72.4409C59.3037 68.0294 55.723 64.4492 51.3026 64.446H43.3047V72.4409C43.3014 76.8492 46.8822 80.4294 51.3026 80.4359ZM51.3026 59.1084H72.627C77.0474 59.1051 80.6282 55.525 80.6249 51.1134C80.6314 46.7019 77.0507 43.1218 72.6303 43.1152H51.3058C46.8854 43.1185 43.3047 46.6986 43.308 51.1102C43.3047 55.525 46.8822 59.1051 51.3026 59.1084Z" fill="#ECB22E"/>
<path id="Vector_4" fill-rule="evenodd" clip-rule="evenodd" d="M0.660158 51.1121C0.656891 55.5237 4.23765 59.1038 8.65805 59.1071C13.0785 59.1038 16.6592 55.5237 16.6559 51.1121V43.1172H8.65805C4.23765 43.1204 0.656891 46.7006 0.660158 51.1121ZM21.9846 51.1121V72.4364C21.9781 76.8479 25.5588 80.4281 29.9792 80.4346C34.3996 80.4313 37.9804 76.8512 37.9771 72.4396V51.1187C37.9837 46.7071 34.4029 43.127 29.9825 43.1204C25.5588 43.1204 21.9813 46.7006 21.9846 51.1121Z" fill="#E01E5A"/>
</g>
<defs>
<clipPath id="clip0_2899_10069">
<rect width="79.9658" height="79.9658" fill="white" transform="translate(0.660156 0.46875)"/>
</clipPath>
</defs>
</svg>
