<svg width="82" height="85" viewBox="0 0 82 85" fill="none" xmlns="http://www.w3.org/2000/svg">
<g id="Frame" clip-path="url(#clip0_2899_10065)">
<path id="Vector" d="M62.7009 28.1844V18.1606C64.0299 17.5416 65.1552 16.559 65.9457 15.3273C66.7362 14.0957 67.1595 12.6655 67.1662 11.2034V10.9733C67.1662 6.71042 63.6987 3.25433 59.4222 3.25433H59.191C54.9138 3.25433 51.4466 6.71042 51.4466 10.9733V11.2034C51.4533 12.6655 51.8766 14.0957 52.6671 15.3274C53.4576 16.5591 54.5829 17.5416 55.9119 18.1606V28.1844C52.0924 28.7671 48.4952 30.3453 45.4845 32.7593L17.9034 11.3481C18.0988 10.6424 18.2034 9.91465 18.2144 9.18257C18.2236 4.37893 14.3253 0.477984 9.50583 0.468766C4.68638 0.459548 0.772937 4.34479 0.763688 9.14843C0.75444 13.9521 4.65315 17.8544 9.47191 17.8622H9.47774C10.9876 17.8551 12.4691 17.4533 13.7745 16.697L40.934 37.762C38.4941 41.4358 37.2212 45.757 37.2812 50.1623C37.3412 54.5676 38.7313 58.8528 41.2703 62.4592L33.0098 70.695C32.342 70.4823 31.6463 70.3694 30.9453 70.3598C26.9894 70.3632 23.7847 73.5608 23.7864 77.5038C23.7881 81.4467 26.9942 84.6427 30.9498 84.6437C34.9054 84.6447 38.1142 81.4505 38.1176 77.5082C38.1083 76.8096 37.9948 76.1162 37.7809 75.4509L45.9521 67.3008C48.6169 69.3454 51.7159 70.755 55.0116 71.4216C58.3074 72.0881 61.7125 71.9939 64.9662 71.1462C68.2198 70.2985 71.2356 68.7198 73.7825 66.531C76.3295 64.3422 78.34 61.6014 79.66 58.5185C80.9801 55.4356 81.5747 52.0925 81.3983 48.7452C81.2219 45.3979 80.2792 42.1353 78.6423 39.2072C77.0055 36.2791 74.7179 33.7634 71.9549 31.8526C69.1919 29.9418 66.0268 28.6867 62.702 28.1834M59.3146 61.1506C53.073 61.3179 47.8771 56.4105 47.7093 50.1893C47.5414 43.9681 52.465 38.7896 58.7066 38.622C58.9094 38.6165 59.1121 38.6165 59.3146 38.622C65.3987 38.8343 70.2212 43.8114 70.2247 49.8783C70.2281 55.9451 65.4097 60.9263 59.3259 61.1448" fill="#FF7A59"/>
</g>
<defs>
<clipPath id="clip0_2899_10065">
<rect width="80.6673" height="84.1746" fill="white" transform="translate(0.765625 0.46875)"/>
</clipPath>
</defs>
</svg>
