<svg width="99" height="70" viewBox="0 0 99 70" fill="none" xmlns="http://www.w3.org/2000/svg">
<g id="Frame" clip-path="url(#clip0_2899_10076)">
<path id="Vector" d="M41.6087 8.07173C44.776 4.7718 49.1853 2.72467 54.0609 2.72467C60.5424 2.72467 66.1989 6.33887 69.2114 11.7064C71.9057 10.503 74.824 9.8827 77.7748 9.8863C89.4669 9.8863 98.9475 19.4486 98.9475 31.2439C98.9475 43.0392 89.4685 52.6027 77.7748 52.6027C76.3744 52.6037 74.9774 52.4645 73.6046 52.1874C70.9524 56.9189 65.898 60.1155 60.0969 60.1155C57.7506 60.1181 55.4347 59.5847 53.326 58.5559C50.6372 64.8807 44.3729 69.3156 37.0721 69.3156C29.4688 69.3156 22.9893 64.5044 20.502 57.7572C19.3944 57.9915 18.2653 58.109 17.1332 58.108C8.08079 58.1096 0.742228 50.6946 0.742228 41.5456C0.735861 38.6465 1.48924 35.7964 2.92728 33.2793C4.36533 30.7621 6.43784 28.6658 8.93831 27.1991C7.90039 24.8089 7.36618 22.2305 7.36901 19.6246C7.36901 9.10256 15.9092 0.574219 26.4429 0.574219C32.6278 0.574219 38.124 3.51508 41.6087 8.07173Z" fill="#00A1E0"/>
<path id="Vector_2" d="M14.9635 36.2239C14.9022 36.385 14.9859 36.4203 15.0055 36.4466C15.1901 36.581 15.3779 36.6776 15.5665 36.7853C16.5701 37.3168 17.5128 37.472 18.5027 37.472C20.5175 37.472 21.7678 36.4003 21.7678 34.6753V34.6419C21.7678 33.0469 20.3564 32.4675 19.0319 32.0491L18.8598 31.9929C17.8609 31.6684 16.999 31.3887 16.999 30.7311V30.6961C16.999 30.1336 17.5026 29.7195 18.2832 29.7195C19.1505 29.7195 20.1801 30.0078 20.8431 30.3744C20.8431 30.3744 21.0395 30.5001 21.1091 30.3115C21.1483 30.2106 21.4842 29.307 21.5192 29.2088C21.5584 29.1027 21.4897 29.0242 21.421 28.9821C20.6644 28.5221 19.6179 28.207 18.5353 28.207H18.3338C16.49 28.207 15.2031 29.3208 15.2031 30.9177V30.9515C15.2031 32.6344 16.6227 33.1801 17.9528 33.5604L18.1669 33.6264C19.1364 33.9242 19.9715 34.1803 19.9715 34.8631V34.8965C19.9715 35.5207 19.429 35.985 18.553 35.985C17.6342 35.9917 16.733 35.7325 15.9581 35.2386C15.8167 35.1561 15.7342 35.096 15.625 35.03C15.568 34.9939 15.4239 34.9306 15.3606 35.1212L14.9635 36.2243V36.2239ZM44.454 36.2239C44.3924 36.385 44.4764 36.4203 44.4961 36.4466C44.6807 36.581 44.8681 36.6776 45.057 36.7853C46.0583 37.3168 47.0042 37.472 47.9933 37.472C50.0077 37.472 51.2584 36.4003 51.2584 34.6753V34.6419C51.2584 33.0469 49.847 32.4675 48.522 32.0491L48.35 31.9929C47.3511 31.6684 46.4892 31.3887 46.4892 30.7311V30.6961C46.4892 30.1336 46.9928 29.7195 47.7733 29.7195C48.6407 29.7195 49.6706 30.0078 50.3337 30.3744C50.3337 30.3744 50.5301 30.5001 50.5992 30.3115C50.6385 30.2106 50.9744 29.307 51.0093 29.2088C51.0486 29.1027 50.9799 29.0242 50.9111 28.9821C50.1546 28.5221 49.1081 28.207 48.0255 28.207H47.824C45.9801 28.207 44.6933 29.3208 44.6933 30.9177V30.9515C44.6933 32.6344 46.1129 33.1801 47.443 33.5604L47.6571 33.6264C48.6265 33.9242 49.464 34.1803 49.464 34.8631V34.8965C49.464 35.5207 48.9196 35.985 48.044 35.985C47.1251 35.9917 46.2239 35.7325 45.449 35.2386C45.3076 35.1561 45.224 35.0988 45.1175 35.03C45.081 35.0064 44.9105 34.9405 44.8516 35.1212L44.4544 36.2239H44.454ZM64.5862 32.8454C64.5862 33.8208 64.4043 34.5889 64.0465 35.1314C63.6886 35.6739 63.1579 35.9293 62.4116 35.9293C61.6652 35.9293 61.1302 35.6692 60.7818 35.1302C60.4333 34.5912 60.2503 33.8197 60.2503 32.8442C60.2503 31.8688 60.4294 31.1039 60.7818 30.5657C61.1341 30.0275 61.6613 29.7772 62.4116 29.7772C63.1618 29.7772 63.6945 30.0357 64.0496 30.5677C64.4047 31.0996 64.5882 31.8715 64.5882 32.8462M66.2698 31.0391C66.1177 30.5048 65.8572 30.0076 65.5046 29.5785C65.1522 29.1595 64.7112 28.8241 64.2134 28.5963C63.7 28.3571 63.0927 28.2357 62.4116 28.2357C61.7304 28.2357 61.122 28.3571 60.6085 28.5963C60.1106 28.8246 59.6692 29.16 59.3158 29.5785C58.9648 30.0087 58.7045 30.5056 58.5506 31.0391C58.2223 32.2214 58.2223 33.4709 58.5506 34.6533C58.7038 35.1874 58.9647 35.6845 59.3174 36.1139C59.6684 36.5321 60.1099 36.8651 60.6085 37.0878C61.1231 37.3215 61.7289 37.4413 62.412 37.4413C63.0951 37.4413 63.6988 37.3235 64.2134 37.0878C64.7119 36.865 65.1534 36.532 65.5046 36.1139C65.8573 35.6848 66.1178 35.1876 66.2698 34.6533C66.6001 33.4712 66.6001 32.2212 66.2698 31.0391ZM80.078 35.6711C80.0222 35.5073 79.8639 35.569 79.8639 35.569C79.6119 35.6711 79.3497 35.7462 79.0818 35.7929C78.7766 35.8381 78.4684 35.86 78.1599 35.8585C77.346 35.8585 76.6998 35.6165 76.2351 35.1381C75.7704 34.6596 75.5104 33.886 75.5131 32.8395C75.5159 31.8868 75.7453 31.1703 76.1581 30.625C76.571 30.0797 77.1916 29.8008 78.024 29.8008C78.7177 29.8008 79.2464 29.8794 79.8003 30.0554C79.8003 30.0554 79.9335 30.1127 79.9967 29.9375C80.1436 29.529 80.2524 29.2363 80.4092 28.7873C80.4539 28.66 80.3451 28.6054 80.3058 28.5908C80.0874 28.5056 79.5729 28.3673 79.184 28.3084C78.766 28.2483 78.3441 28.2198 77.9219 28.2231C77.2148 28.2231 76.5863 28.3434 76.0473 28.5842C75.53 28.8092 75.0679 29.1444 74.6933 29.5663C74.3246 29.9928 74.0462 30.4897 73.8751 31.0269C73.6884 31.612 73.5956 32.223 73.6001 32.8371C73.6001 34.2321 73.9764 35.3596 74.7192 36.185C75.462 37.0104 76.5812 37.4343 78.0389 37.4343C78.9007 37.4343 79.7846 37.2594 80.4198 37.0092C80.4547 36.9911 80.4814 36.9602 80.4942 36.923C80.507 36.8857 80.5049 36.845 80.4885 36.8092L80.0757 35.67L80.078 35.6711ZM83.0202 31.9128C83.0988 31.371 83.2496 30.9204 83.4802 30.5696C83.8286 30.0365 84.3601 29.7446 85.1072 29.7446C85.8544 29.7446 86.3481 30.0381 86.702 30.5696C86.9377 30.9204 87.0391 31.3907 87.0799 31.9128H83.0202ZM88.6814 30.722C88.5388 30.1835 88.1849 29.639 87.9528 29.3899C87.5863 28.997 87.228 28.7221 86.8729 28.5649C86.3569 28.3461 85.802 28.2337 85.2416 28.2345C84.531 28.2345 83.886 28.3524 83.3627 28.5999C82.8569 28.8318 82.4091 29.1734 82.0519 29.6001C81.6967 30.0347 81.4344 30.5375 81.2812 31.0776C81.1108 31.6681 81.0265 32.2802 81.031 32.8949C81.0249 33.5103 81.1122 34.123 81.2898 34.7122C81.453 35.2501 81.7349 35.7444 82.1148 36.1587C82.4879 36.5661 82.9695 36.8851 83.5458 37.107C84.122 37.329 84.8134 37.4429 85.612 37.4417C87.2555 37.4358 88.1217 37.0693 88.4795 36.8721C88.5424 36.8371 88.6025 36.7758 88.5271 36.5995L88.1551 35.5572C88.0989 35.4001 87.941 35.459 87.941 35.459C87.5336 35.6103 86.9546 35.8817 85.6045 35.879C84.7219 35.879 84.067 35.6173 83.6573 35.2111C83.2362 34.7943 83.0288 34.1815 82.9943 33.3172L88.6865 33.3227C88.6865 33.3227 88.8358 33.32 88.8515 33.1742C88.962 32.3538 88.9044 31.5195 88.6822 30.722M37.4321 31.9112C37.513 31.3695 37.6615 30.9189 37.8925 30.5681C38.2405 30.035 38.7724 29.7431 39.5191 29.7431C40.2659 29.7431 40.76 30.0365 41.1155 30.5681C41.3488 30.9189 41.451 31.3891 41.4914 31.9112H37.4321ZM43.0922 30.7205C42.9492 30.1819 42.5968 29.6374 42.3647 29.3883C41.9982 28.9955 41.6399 28.7205 41.2848 28.5633C40.7688 28.3445 40.2139 28.2322 39.6535 28.233C38.9464 28.233 38.2979 28.3508 37.775 28.5983C37.2691 28.83 36.8213 29.1717 36.4642 29.5985C36.1088 30.0331 35.8464 30.536 35.6931 31.076C35.5234 31.6667 35.4392 32.2787 35.4429 32.8933C35.4363 33.5089 35.523 34.1219 35.7002 34.7114C35.8636 35.2492 36.1455 35.7434 36.5251 36.1579C36.8986 36.5653 37.3798 36.8843 37.9561 37.1062C38.5324 37.3282 39.2237 37.4421 40.0223 37.4409C41.6662 37.435 42.532 37.0685 42.8899 36.8713C42.9531 36.8363 43.0132 36.7751 42.9374 36.5987L42.567 35.5564C42.5096 35.3993 42.3513 35.4582 42.3513 35.4582C41.9443 35.6095 41.3665 35.8809 40.0137 35.8782C39.1326 35.8782 38.4778 35.6165 38.0681 35.2103C37.647 34.7935 37.4396 34.1807 37.405 33.3164L43.0969 33.3219C43.0969 33.3219 43.2465 33.3192 43.2622 33.1734C43.3722 32.3529 43.3141 31.5186 43.0914 30.7213M25.1283 35.6385C24.906 35.4606 24.8754 35.4158 24.7996 35.3011C24.6876 35.1263 24.6307 34.8772 24.6307 34.5614C24.6307 34.0601 24.7956 33.7006 25.1382 33.4586C25.1342 33.4586 25.628 33.032 26.788 33.0473C27.3055 33.0571 27.8217 33.1012 28.3333 33.1793V35.7674C27.826 35.8697 27.3123 35.938 26.7958 35.9717C25.6374 36.0416 25.1228 35.6374 25.1268 35.6389M27.3917 31.639C27.1608 31.6221 26.8614 31.6122 26.5032 31.6122C26.0301 31.6107 25.5589 31.6715 25.1016 31.793C24.6754 31.903 24.2725 32.0894 23.9126 32.3429C23.5691 32.5881 23.2868 32.9093 23.0877 33.2815C22.8862 33.6566 22.784 34.0986 22.784 34.594C22.784 35.0976 22.8708 35.5368 23.0445 35.8935C23.2134 36.2477 23.4687 36.5537 23.7869 36.7833C24.1011 37.0143 24.494 37.1836 24.9469 37.2858C25.4417 37.3929 25.947 37.4444 26.4533 37.4394C27.0325 37.4401 27.6107 37.3919 28.1817 37.2952C28.7399 37.2001 29.4253 37.0618 29.6155 37.0202C29.749 36.988 29.8819 36.9539 30.0142 36.918C30.1556 36.8831 30.1442 36.7318 30.1442 36.7318L30.1414 31.5262C30.1414 30.3842 29.8366 29.538 29.238 29.012C28.6393 28.486 27.7606 28.2263 26.6234 28.2263C26.1968 28.2263 25.5098 28.2852 25.0985 28.3677C25.0985 28.3677 23.8548 28.6085 23.343 29.0084C23.343 29.0084 23.2311 29.0784 23.2927 29.2351L23.6954 30.3182C23.7012 30.3367 23.7107 30.3538 23.7233 30.3686C23.736 30.3833 23.7514 30.3954 23.7688 30.404C23.7862 30.4126 23.8051 30.4176 23.8245 30.4188C23.8439 30.4199 23.8633 30.4171 23.8816 30.4105C23.9139 30.3973 23.9453 30.3818 23.9754 30.3642C25.0706 29.7682 26.4557 29.7863 26.4557 29.7863C27.0712 29.7863 27.5442 29.9096 27.8631 30.1544C28.1734 30.3901 28.3314 30.7515 28.3314 31.5101V31.7505C27.8419 31.6806 27.3929 31.6401 27.3929 31.6401M73.3027 28.7071C73.311 28.6882 73.3154 28.6677 73.3156 28.6471C73.3157 28.6264 73.3117 28.6059 73.3037 28.5868C73.2958 28.5677 73.284 28.5504 73.2692 28.536C73.2544 28.5216 73.2368 28.5103 73.2175 28.5028C73.1209 28.4636 72.6369 28.3626 72.2634 28.339C71.5484 28.2958 71.1513 28.4176 70.7958 28.5747C70.4403 28.7319 70.0518 28.9916 69.8334 29.2838V28.5908C69.8345 28.5686 69.831 28.5463 69.8233 28.5254C69.8156 28.5045 69.8037 28.4854 69.7884 28.4692C69.7731 28.453 69.7547 28.44 69.7343 28.4311C69.7139 28.4222 69.6919 28.4174 69.6696 28.4172H68.2107C68.1884 28.4174 68.1664 28.4222 68.146 28.4311C68.1256 28.44 68.1072 28.453 68.0919 28.4692C68.0766 28.4854 68.0647 28.5045 68.057 28.5254C68.0493 28.5463 68.0458 28.5686 68.0469 28.5908V37.0815C68.0472 37.1274 68.0656 37.1713 68.0981 37.2038C68.1306 37.2362 68.1746 37.2545 68.2205 37.2547H69.7179C69.7637 37.2545 69.8075 37.2362 69.8398 37.2037C69.872 37.1712 69.8901 37.1273 69.89 37.0815V32.8387C69.89 32.2695 69.9528 31.6995 70.0789 31.3459C70.205 30.9923 70.3696 30.7107 70.577 30.5076C70.7747 30.313 71.0159 30.1682 71.2805 30.0852C71.5287 30.0135 71.7858 29.9772 72.0442 29.9776C72.2547 29.9831 72.4642 30.0094 72.6695 30.0562C72.7787 30.0687 72.8404 30.0016 72.8765 29.9022C72.9744 29.6417 73.2517 28.8627 73.3047 28.7075" fill="white"/>
<path id="Vector_3" d="M59.2655 24.7717C59.081 24.7157 58.8932 24.6708 58.7033 24.6373C58.4477 24.5952 58.1889 24.5755 57.9299 24.5784C56.8999 24.5784 56.0888 24.8695 55.5192 25.4427C54.9496 26.0158 54.5682 26.8821 54.3749 28.0253L54.305 28.4099H53.0126C52.9663 28.4099 52.9215 28.4266 52.8865 28.457C52.8515 28.4874 52.8287 28.5294 52.8221 28.5752L52.6112 29.7601C52.5955 29.872 52.6446 29.9435 52.7958 29.9435H54.0528L52.777 37.0671C52.6776 37.641 52.5629 38.1124 52.4356 38.4703C52.3083 38.8282 52.1893 39.0875 52.0385 39.2804C51.8927 39.465 51.7556 39.6021 51.518 39.6819C51.3012 39.7499 51.075 39.7825 50.8478 39.7785C50.6946 39.7756 50.542 39.7588 50.3918 39.7282C50.2857 39.7074 50.1824 39.6741 50.0842 39.6288C50.0842 39.6288 49.9373 39.573 49.8784 39.7196C49.832 39.8414 49.4966 40.7634 49.4557 40.8769C49.4148 40.9904 49.4726 41.078 49.5441 41.1048C49.7144 41.1657 49.8882 41.2166 50.0646 41.2572C50.3382 41.3171 50.6181 41.3435 50.8981 41.3357C51.4214 41.3357 51.8998 41.2615 52.2958 41.1189C52.6917 40.9763 53.0397 40.726 53.3477 40.3858C53.6792 40.0189 53.8874 39.6359 54.0862 39.111C54.2826 38.5937 54.4527 37.9498 54.587 37.2002L55.87 29.9435H57.7445C57.791 29.9436 57.836 29.9268 57.871 29.8961C57.906 29.8655 57.9286 29.8231 57.9346 29.777L58.1471 28.5933C58.1613 28.4802 58.1137 28.4103 57.9613 28.4103H56.141C56.1512 28.371 56.2333 27.7287 56.4419 27.126C56.5289 26.8969 56.6649 26.6896 56.8406 26.5187C56.9739 26.3833 57.1375 26.2817 57.3179 26.2221C57.5158 26.1613 57.7221 26.132 57.9291 26.1353C58.0859 26.1353 58.2424 26.1507 58.3962 26.1812C58.5725 26.2205 58.6413 26.239 58.6872 26.2527C58.8734 26.3089 58.8986 26.2527 58.9351 26.1647L59.3703 24.9681C59.4151 24.8393 59.3047 24.7847 59.2655 24.7693M33.837 37.0812C33.838 37.1034 33.8344 37.1255 33.8266 37.1462C33.8188 37.167 33.8069 37.186 33.7917 37.202C33.7764 37.2181 33.758 37.2309 33.7376 37.2397C33.7173 37.2485 33.6954 37.2531 33.6732 37.2533H32.1644C32.1423 37.2531 32.1205 37.2484 32.1002 37.2396C32.08 37.2308 32.0617 37.2179 32.0466 37.2018C32.0314 37.1858 32.0197 37.1668 32.012 37.1461C32.0044 37.1253 32.001 37.1033 32.0022 37.0812V24.932C32.001 24.9099 32.0044 24.8878 32.012 24.8671C32.0197 24.8464 32.0314 24.8274 32.0466 24.8113C32.0617 24.7953 32.08 24.7824 32.1002 24.7736C32.1205 24.7647 32.1423 24.7601 32.1644 24.7599H33.674C33.6962 24.76 33.7181 24.7647 33.7384 24.7735C33.7588 24.7823 33.7772 24.7951 33.7924 24.8111C33.8077 24.8272 33.8196 24.8462 33.8274 24.8669C33.8352 24.8877 33.8387 24.9098 33.8378 24.932L33.837 37.0812Z" fill="white"/>
</g>
<defs>
<clipPath id="clip0_2899_10076">
<rect width="98.2037" height="68.7426" fill="white" transform="translate(0.740234 0.574219)"/>
</clipPath>
</defs>
</svg>
