<svg width="85" height="86" viewBox="0 0 85 86" fill="none" xmlns="http://www.w3.org/2000/svg">
<g id="Frame" clip-path="url(#clip0_2899_10082)">
<path id="Vector" d="M52.6423 43.0719C52.6415 46.1043 52.0935 49.1118 51.0246 51.9496C48.1868 53.0187 45.1793 53.5668 42.1468 53.5674H42.1106C39.0782 53.5663 36.0708 53.0182 33.2328 51.9496C32.1637 49.1119 31.6156 46.1044 31.6151 43.0719V43.0324C31.6167 40.0003 32.1636 36.9932 33.2295 34.1546C36.0675 33.0861 39.0749 32.5381 42.1073 32.5369H42.1435C45.176 32.5375 48.1835 33.0855 51.0213 34.1546C52.0899 36.9925 52.6379 39.9999 52.639 43.0324V43.0719H52.6423ZM83.6225 36.0387H59.0573L76.4249 18.6645C75.0614 16.75 73.5415 14.9519 71.8808 13.2885C70.2174 11.6289 68.4192 10.1101 66.5048 8.7477L49.1339 26.1186V1.55012C46.823 1.16146 44.4837 0.965695 42.1402 0.964844L42.0975 0.964844C39.7551 0.965695 37.4169 1.16146 35.107 1.55012V26.1186L17.7329 8.7477C15.8191 10.1095 14.0229 11.6295 12.3635 13.2918C10.7003 14.9535 9.17815 16.7506 7.81277 18.6645L25.1869 36.0387H0.618479C0.618479 36.0387 0.0332031 40.6518 0.0332031 43.0521C0.0339173 45.3978 0.229684 47.7393 0.618479 50.0524H25.1869L7.81277 67.4397C10.5459 71.2742 13.8985 74.6267 17.7329 77.3598L35.107 59.9857V84.5541C37.4149 84.9412 39.7508 85.1369 42.0909 85.1394H42.1501C44.4902 85.1371 46.8261 84.9413 49.1339 84.5541V59.9857L66.5081 77.3598C68.4208 75.9954 70.2178 74.4755 71.8808 72.8157C73.5406 71.1536 75.0594 69.3566 76.4216 67.443L59.054 50.0656H83.6225C84.0095 47.7577 84.2053 45.4218 84.2078 43.0817V43.0225C84.2053 40.6824 84.0095 38.3465 83.6225 36.0387Z" fill="#FF4A00"/>
</g>
<defs>
<clipPath id="clip0_2899_10082">
<rect width="84.1746" height="84.1746" fill="white" transform="translate(0.0332031 0.964844)"/>
</clipPath>
</defs>
</svg>
