<svg width="71" height="80" viewBox="0 0 71 80" fill="none" xmlns="http://www.w3.org/2000/svg">
<g id="Frame" clip-path="url(#clip0_2899_10060)">
<path id="Vector" d="M71.0067 69.2003C71.0358 74.5943 66.6932 78.9864 61.3117 79.0155C60.9106 79.0187 60.5097 78.9961 60.1115 78.9476C55.1172 78.2075 51.4585 73.8542 51.5811 68.7995V10.684C51.4617 5.62288 55.1301 1.26955 60.1276 0.535913C65.4736 -0.0910699 70.3163 3.74193 70.9422 9.09714C70.9879 9.49081 71.0095 9.88692 71.0067 10.2832V69.2003Z" fill="#F9AB00"/>
<path id="Vector_2" d="M9.87458 59.5702C15.2399 59.5702 19.589 63.9268 19.589 69.3014C19.589 74.676 15.2399 79.0326 9.87458 79.0326C4.50923 79.0326 0.160156 74.676 0.160156 69.3014C0.160156 63.9268 4.50923 59.5702 9.87458 59.5702ZM35.4334 30.0794C30.0423 30.3767 25.861 34.9046 25.9868 40.3115V66.4477C25.9868 73.5416 29.1034 77.8465 33.6686 78.7643C38.9372 79.8341 44.0703 76.4244 45.1382 71.1468C45.2703 70.5014 45.3351 69.8439 45.3318 69.1851V39.8591C45.3414 34.4651 40.9859 30.0859 35.6012 30.0762C35.5464 30.0762 35.4883 30.0762 35.4334 30.0794Z" fill="#E37400"/>
</g>
<defs>
<clipPath id="clip0_2899_10060">
<rect width="70.8469" height="78.5629" fill="white" transform="translate(0.162109 0.46875)"/>
</clipPath>
</defs>
</svg>
