<svg width="61" height="83" viewBox="0 0 61 83" fill="none" xmlns="http://www.w3.org/2000/svg">
<g id="Frame" clip-path="url(#clip0_2899_10043)">
<g id="Group">
<path id="Vector" d="M38.0912 0.0664062H6.04585C4.54661 0.0686527 3.10929 0.663401 2.04836 1.72053C0.987434 2.77766 0.38928 4.21109 0.384766 5.70722V77.2399C0.38928 78.736 0.987434 80.1694 2.04836 81.2265C3.10929 82.2837 4.54661 82.8784 6.04585 82.8807H55.0573C56.5551 82.8762 57.9902 82.2804 59.0493 81.2235C60.1084 80.1667 60.7054 78.7345 60.7099 77.2399V22.7063L47.5178 13.3334L38.0912 0.0664062Z" fill="#0F9D58"/>
</g>
<g id="Group_2">
<path id="Vector_2" d="M15.4727 40.5137V67.7804H45.6309V40.5137H15.4727ZM28.6648 64.0227H19.2723V59.3448H28.6648V64.0227ZM28.6648 56.4988H19.2723V51.7953H28.6648V56.4988ZM28.6648 48.9749H19.2723V44.2714H28.6648V48.9749ZM41.8569 64.0227H32.4644V59.3448H41.8569V64.0227ZM41.8569 56.4988H32.4644V51.7953H41.8569V56.4988ZM41.8569 48.9749H32.4644V44.2714H41.8569V48.9749Z" fill="#F1F1F1"/>
</g>
<g id="Group_3">
<path id="Vector_3" d="M39.752 21.0039L60.7142 41.9141V22.6399L39.752 21.0039Z" fill="url(#paint0_linear_2899_10043)"/>
</g>
<g id="Group_4">
<path id="Vector_4" d="M38.0898 0.0664062V16.9974C38.0898 18.4904 38.683 19.9226 39.7394 20.98C40.7958 22.0374 42.2291 22.6337 43.7253 22.6382H60.7086L38.0898 0.0664062Z" fill="#87CEAC"/>
</g>
<g id="Group_5">
<path id="Vector_5" d="M6.04585 0.0664062C4.54661 0.0686527 3.10929 0.663401 2.04836 1.72053C0.987434 2.77766 0.38928 4.21109 0.384766 5.70722V6.18439C0.391531 4.68974 0.990679 3.25849 2.05136 2.2032C3.11205 1.14791 4.54808 0.554331 6.04585 0.552096H38.0912V0.0664062H6.04585Z" fill="white" fill-opacity="0.2"/>
</g>
<g id="Group_6">
<path id="Vector_6" d="M55.0573 82.3525H6.04585C4.54513 82.3502 3.10652 81.7543 2.04535 80.6953C0.984183 79.6363 0.387024 78.2007 0.384766 76.7031V77.2399C0.38928 78.7361 0.987434 80.1695 2.04836 81.2266C3.10929 82.2838 4.54661 82.8785 6.04585 82.8808H55.0573C56.5551 82.8763 57.9902 82.2805 59.0493 81.2236C60.1084 80.1667 60.7054 78.7346 60.7099 77.2399V76.7628C60.6919 78.2485 60.089 79.6676 59.0314 80.7135C57.9738 81.7594 56.5463 82.3481 55.0573 82.3525Z" fill="#263238" fill-opacity="0.2"/>
</g>
<g id="Group_7">
<path id="Vector_7" d="M43.7253 22.6369C42.2291 22.6324 40.7958 22.0361 39.7394 20.9787C38.683 19.9214 38.0898 18.4892 38.0898 16.9961V17.4647C38.0898 18.9578 38.683 20.39 39.7394 21.4474C40.7958 22.5048 42.2291 23.101 43.7253 23.1056H60.7086V22.6369H43.7253Z" fill="#263238" fill-opacity="0.1"/>
</g>
</g>
<defs>
<linearGradient id="paint0_linear_2899_10043" x1="50.2288" y1="22.7848" x2="50.2288" y2="41.9141" gradientUnits="userSpaceOnUse">
<stop stop-color="#263238" stop-opacity="0.2"/>
<stop offset="1" stop-color="#263238" stop-opacity="0.02"/>
</linearGradient>
<clipPath id="clip0_2899_10043">
<rect width="60.3251" height="82.7717" fill="white" transform="translate(0.384766 0.0664062)"/>
</clipPath>
</defs>
</svg>
